<svg width="24" height="24" viewBox="0 0 24 24" fill="none" xmlns="http://www.w3.org/2000/svg">
<g clip-path="url(#clip0_788_907)">
<path d="M9.87381 11.2798C10.3719 11.0293 10.7484 10.7503 11.0064 10.4488C11.4654 9.90571 11.692 9.18565 11.692 8.29308C11.692 7.42451 11.4654 6.68195 11.0124 6.0594C10.2563 5.04531 8.97674 4.52627 7.16759 4.49927H0V19.13H6.68305C7.43611 19.13 8.13367 19.0655 8.77872 18.9335C9.42377 18.7999 9.98182 18.5554 10.4544 18.1984C10.8744 17.8879 11.2254 17.5023 11.5044 17.0478C11.9455 16.3607 12.166 15.5822 12.166 14.7151C12.166 13.875 11.9725 13.1595 11.5885 12.5714C11.1999 11.9834 10.6299 11.5528 9.87381 11.2798ZM2.95674 7.04048H6.18501C6.89457 7.04048 7.47961 7.11698 7.93865 7.26849C8.46969 7.48901 8.73522 7.93755 8.73522 8.62161C8.73522 9.23516 8.5327 9.66419 8.13217 9.90571C7.72863 10.1472 7.20509 10.2687 6.56304 10.2687H2.95674V7.04048ZM8.06166 16.3337C7.70463 16.5063 7.20209 16.5918 6.55854 16.5918H2.95674V12.6899H6.60804C7.24409 12.6944 7.73913 12.7784 8.09316 12.936C8.72322 13.221 9.03674 13.743 9.03674 14.5066C9.03674 15.4067 8.71271 16.0127 8.06166 16.3337Z" fill="#1E3A2B"/>
<path d="M21.6933 5.18188H15.3373V7.00303H21.6933V5.18188Z" fill="#1E3A2B"/>
<path d="M23.9015 12.369C23.7694 11.5215 23.4784 10.7759 23.0254 10.1323C22.5288 9.40328 21.8988 8.86924 21.1322 8.53171C20.3687 8.19268 19.5091 8.02317 18.552 8.02467C16.9454 8.02467 15.6403 8.52721 14.6307 9.52479C13.6241 10.5254 13.1201 11.964 13.1201 13.8391C13.1201 15.8388 13.6766 17.2834 14.7957 18.17C15.9103 19.0581 17.1974 19.5006 18.6585 19.5006C20.4272 19.5006 21.8028 18.9741 22.7854 17.924C23.4139 17.2609 23.7694 16.6084 23.8475 15.9678H20.9192C20.7497 16.2843 20.5532 16.5319 20.3282 16.7119C19.9201 17.0419 19.3891 17.2069 18.738 17.2069C18.1185 17.2069 17.5934 17.0704 17.1554 16.7989C16.4323 16.3639 16.0543 15.6018 16.0063 14.5172H23.9975C24.0095 13.5826 23.9795 12.8641 23.9015 12.369ZM16.0783 12.6495C16.1833 11.946 16.4383 11.3879 16.8434 10.9754C17.2484 10.5644 17.8215 10.3574 18.555 10.3559C19.2316 10.3559 19.7971 10.5494 20.2577 10.9379C20.7122 11.3294 20.9687 11.898 21.0212 12.6495H16.0783Z" fill="#1E3A2B"/>
</g>
<defs>
<clipPath id="clip0_788_907">
<rect width="24" height="24" fill="white"/>
</clipPath>
</defs>
</svg>
