<svg width="58" height="58" viewBox="0 0 58 58" fill="none" xmlns="http://www.w3.org/2000/svg">
<circle cx="29" cy="29" r="28.5" fill="white" stroke="#1E3A2B"/>
<g clip-path="url(#clip0_788_1071)">
<g clip-path="url(#clip1_788_1071)">
<path d="M26.8738 28.2801C27.3719 28.0295 27.7484 27.7505 28.0064 27.449C28.4654 26.906 28.692 26.1859 28.692 25.2933C28.692 24.4248 28.4654 23.6822 28.0124 23.0596C27.2563 22.0456 25.9767 21.5265 24.1676 21.4995H17V36.1302H23.683C24.4361 36.1302 25.1337 36.0657 25.7787 35.9337C26.4238 35.8002 26.9818 35.5557 27.4544 35.1986C27.8744 34.8881 28.2254 34.5026 28.5044 34.048C28.9455 33.361 29.166 32.5824 29.166 31.7153C29.166 30.8753 28.9725 30.1597 28.5885 29.5717C28.1999 28.9836 27.6299 28.5531 26.8738 28.2801ZM19.9567 24.0407H23.185C23.8946 24.0407 24.4796 24.1172 24.9387 24.2687C25.4697 24.4893 25.7352 24.9378 25.7352 25.6218C25.7352 26.2354 25.5327 26.6644 25.1322 26.906C24.7286 27.1475 24.2051 27.269 23.563 27.269H19.9567V24.0407ZM25.0617 33.334C24.7046 33.5065 24.2021 33.592 23.5585 33.592H19.9567V29.6902H23.608C24.2441 29.6947 24.7391 29.7787 25.0932 29.9362C25.7232 30.2212 26.0367 30.7433 26.0367 31.5068C26.0367 32.4069 25.7127 33.013 25.0617 33.334Z" fill="#1E3A2B"/>
<path d="M38.6933 22.1821H32.3373V24.0033H38.6933V22.1821Z" fill="#1E3A2B"/>
<path d="M40.9015 29.3693C40.7694 28.5217 40.4784 27.7761 40.0254 27.1326C39.5288 26.4035 38.8988 25.8695 38.1322 25.532C37.3687 25.1929 36.5091 25.0234 35.552 25.0249C33.9454 25.0249 32.6403 25.5275 31.6307 26.525C30.6241 27.5256 30.1201 28.9642 30.1201 30.8394C30.1201 32.8391 30.6766 34.2837 31.7957 35.1702C32.9103 36.0583 34.1974 36.5009 35.6585 36.5009C37.4272 36.5009 38.8028 35.9743 39.7854 34.9242C40.4139 34.2612 40.7694 33.6086 40.8475 32.9681H37.9192C37.7497 33.2846 37.5532 33.5321 37.3282 33.7121C36.9201 34.0422 36.3891 34.2072 35.738 34.2072C35.1185 34.2072 34.5934 34.0707 34.1554 33.7991C33.4323 33.3641 33.0543 32.602 33.0063 31.5174H40.9975C41.0095 30.5829 40.9795 29.8643 40.9015 29.3693ZM33.0783 29.6498C33.1833 28.9462 33.4383 28.3882 33.8434 27.9757C34.2484 27.5646 34.8215 27.3576 35.555 27.3561C36.2316 27.3561 36.7971 27.5496 37.2577 27.9382C37.7122 28.3297 37.9687 28.8982 38.0212 29.6498H33.0783Z" fill="#1E3A2B"/>
</g>
</g>
<defs>
<clipPath id="clip0_788_1071">
<rect width="24" height="24" fill="white" transform="translate(17 17)"/>
</clipPath>
<clipPath id="clip1_788_1071">
<rect width="24" height="24" fill="white" transform="translate(17 17)"/>
</clipPath>
</defs>
</svg>
