<svg width="24" height="24" viewBox="0 0 24 24" fill="none" xmlns="http://www.w3.org/2000/svg">
<g clip-path="url(#clip0_788_901)">
<path d="M22.391 5.97645C21.3179 4.13803 19.8623 2.68243 18.0238 1.60938C16.185 0.536388 14.1777 0 12.0004 0C9.82322 0 7.81531 0.536388 5.97684 1.60938C4.13825 2.68227 2.68265 4.13787 1.60955 5.97645C0.536388 7.81515 0 9.82306 0 12C0 14.1771 0.536552 16.1847 1.60938 18.0235C2.68243 19.8619 4.13803 21.3175 5.97662 22.3907C7.81531 23.4636 9.82306 24.0001 12.0001 24.0001C14.1772 24.0001 16.1852 23.4636 18.0238 22.3907C19.8622 21.3179 21.3178 19.8619 22.3908 18.0235C23.4636 16.1849 23.9999 14.177 23.9999 12C24 9.82284 23.4636 7.81487 22.391 5.97645ZM12.0002 1.75003C14.5834 1.75003 16.8387 2.60417 18.7657 4.3124L18.5704 4.58565C18.4923 4.69522 18.297 4.90592 17.9846 5.21858C17.6721 5.53097 17.331 5.82803 16.9612 6.10922C16.5912 6.39052 16.0889 6.71079 15.4532 7.07019C14.8177 7.42959 14.1407 7.74488 13.4219 8.01567C12.224 5.80713 10.9429 3.81755 9.57826 2.04682C10.4013 1.84893 11.2086 1.75003 12.0002 1.75003ZM3.96909 5.64026C4.96902 4.38009 6.18759 3.41119 7.62524 2.73421C8.91687 4.45294 10.1876 6.42183 11.4377 8.6405C8.27103 9.47384 5.11487 9.89054 1.969 9.89038C2.30251 8.31755 2.96915 6.9007 3.96909 5.64026ZM2.43758 15.6956C1.97918 14.5238 1.75003 13.2918 1.75003 12C1.75003 11.8541 1.7554 11.7447 1.76569 11.6719C5.53671 11.6719 9.04204 11.1876 12.2816 10.2187C12.615 10.8645 12.8911 11.4426 13.1098 11.9532C13.0676 11.974 13.0004 11.9973 12.9066 12.0234C12.8125 12.0494 12.745 12.0675 12.703 12.0781L12.125 12.2812C11.729 12.4271 11.2106 12.6771 10.5702 13.0311C9.92967 13.3856 9.25 13.8073 8.53121 14.297C7.81241 14.7867 7.07019 15.4351 6.30466 16.2427C5.53901 17.0499 4.8958 17.9169 4.37495 18.8439C3.54161 17.9169 2.89587 16.8671 2.43758 15.6956ZM12.0002 22.2502C9.56261 22.2502 7.38553 21.4688 5.4688 19.9065L5.7032 20.0784C6.06774 19.2761 6.60413 18.5052 7.31264 17.7658C8.02103 17.0264 8.70327 16.4297 9.35951 15.9764C10.0158 15.5236 10.7292 15.0966 11.5002 14.695C12.271 14.2943 12.7968 14.0388 13.0783 13.9298C13.3596 13.8204 13.5836 13.7343 13.7502 13.6717L13.7813 13.656H13.8128C14.8333 16.3331 15.5628 18.927 16.0001 21.4374C14.7085 21.9793 13.3753 22.25 12.0002 22.2502ZM20.6256 17.5392C19.8547 18.732 18.891 19.7192 17.7351 20.5002C17.3076 18.1044 16.6413 15.6614 15.7348 13.172C17.8078 12.8487 19.9379 13 22.1255 13.6248C21.8962 15.0415 21.3962 16.3465 20.6256 17.5392ZM22.094 11.8594C21.9898 11.8387 21.8595 11.8151 21.7033 11.7892C21.5471 11.7633 21.3568 11.7319 21.1328 11.6955C20.9091 11.659 20.6588 11.6253 20.3829 11.5939C20.1068 11.5627 19.8126 11.5341 19.4998 11.5081C19.1874 11.4819 18.854 11.4613 18.5001 11.4455C18.1455 11.43 17.7863 11.4221 17.4216 11.4221C17.0574 11.4221 16.6742 11.4327 16.2734 11.4534C15.8725 11.4739 15.4846 11.5108 15.1096 11.5628C15.0781 11.5106 15.0392 11.4246 14.9923 11.3048C14.9455 11.1851 14.9114 11.0938 14.8912 11.0313C14.693 10.5938 14.4638 10.0989 14.2031 9.54701C14.9219 9.25515 15.607 8.91934 16.2584 8.53903C16.9092 8.15873 17.4297 7.8204 17.8206 7.52356C18.2113 7.22638 18.581 6.91126 18.9299 6.57802C19.279 6.24473 19.5053 6.01307 19.6098 5.88281C19.7141 5.75234 19.813 5.62483 19.9066 5.49999L19.9223 5.48423C21.4431 7.33841 22.2195 9.47373 22.2503 11.8906L22.094 11.8594Z" fill="#1E3A2B"/>
</g>
<defs>
<clipPath id="clip0_788_901">
<rect width="24" height="24" fill="white"/>
</clipPath>
</defs>
</svg>
