<svg width="58" height="58" viewBox="0 0 58 58" fill="none" xmlns="http://www.w3.org/2000/svg">
<circle cx="29" cy="29" r="28.5" fill="white" stroke="#1E3A2B"/>
<g clip-path="url(#clip0_788_1066)">
<path d="M39.391 22.9765C38.3179 21.138 36.8623 19.6824 35.0238 18.6094C33.185 17.5364 31.1777 17 29.0004 17C26.8232 17 24.8153 17.5364 22.9768 18.6094C21.1383 19.6823 19.6827 21.1379 18.6095 22.9765C17.5364 24.8151 17 26.8231 17 29C17 31.1771 17.5366 33.1847 18.6094 35.0235C19.6824 36.8619 21.138 38.3175 22.9766 39.3907C24.8153 40.4636 26.8231 41.0001 29.0001 41.0001C31.1772 41.0001 33.1852 40.4636 35.0238 39.3907C36.8622 38.3179 38.3178 36.8619 39.3908 35.0235C40.4636 33.1849 40.9999 31.177 40.9999 29C41 26.8228 40.4636 24.8149 39.391 22.9765ZM29.0002 18.75C31.5834 18.75 33.8387 19.6042 35.7657 21.3124L35.5704 21.5857C35.4923 21.6952 35.297 21.9059 34.9846 22.2186C34.6721 22.531 34.331 22.828 33.9612 23.1092C33.5912 23.3905 33.0889 23.7108 32.4532 24.0702C31.8177 24.4296 31.1407 24.7449 30.4219 25.0157C29.224 22.8071 27.9429 20.8175 26.5783 19.0468C27.4013 18.8489 28.2086 18.75 29.0002 18.75ZM20.9691 22.6403C21.969 21.3801 23.1876 20.4112 24.6252 19.7342C25.9169 21.4529 27.1876 23.4218 28.4377 25.6405C25.271 26.4738 22.1149 26.8905 18.969 26.8904C19.3025 25.3175 19.9692 23.9007 20.9691 22.6403ZM19.4376 32.6956C18.9792 31.5238 18.75 30.2918 18.75 29C18.75 28.8541 18.7554 28.7447 18.7657 28.6719C22.5367 28.6719 26.042 28.1876 29.2816 27.2187C29.615 27.8645 29.8911 28.4426 30.1098 28.9532C30.0676 28.974 30.0004 28.9973 29.9066 29.0234C29.8125 29.0494 29.745 29.0675 29.703 29.0781L29.125 29.2812C28.729 29.4271 28.2106 29.6771 27.5702 30.0311C26.9297 30.3856 26.25 30.8073 25.5312 31.297C24.8124 31.7867 24.0702 32.4351 23.3047 33.2427C22.539 34.0499 21.8958 34.9169 21.375 35.8439C20.5416 34.9169 19.8959 33.8671 19.4376 32.6956ZM29.0002 39.2502C26.5626 39.2502 24.3855 38.4688 22.4688 36.9065L22.7032 37.0784C23.0677 36.2761 23.6041 35.5052 24.3126 34.7658C25.021 34.0264 25.7033 33.4297 26.3595 32.9764C27.0158 32.5236 27.7292 32.0966 28.5002 31.695C29.271 31.2943 29.7968 31.0388 30.0783 30.9298C30.3596 30.8204 30.5836 30.7343 30.7502 30.6717L30.7813 30.656H30.8128C31.8333 33.3331 32.5628 35.927 33.0001 38.4374C31.7085 38.9793 30.3753 39.25 29.0002 39.2502ZM37.6256 34.5392C36.8547 35.732 35.891 36.7192 34.7351 37.5002C34.3076 35.1044 33.6413 32.6614 32.7348 30.172C34.8078 29.8487 36.9379 30 39.1255 30.6248C38.8962 32.0415 38.3962 33.3465 37.6256 34.5392ZM39.094 28.8594C38.9898 28.8387 38.8595 28.8151 38.7033 28.7892C38.5471 28.7633 38.3568 28.7319 38.1328 28.6955C37.9091 28.659 37.6588 28.6253 37.3829 28.5939C37.1068 28.5627 36.8126 28.5341 36.4998 28.5081C36.1874 28.4819 35.854 28.4613 35.5001 28.4455C35.1455 28.43 34.7863 28.4221 34.4216 28.4221C34.0574 28.4221 33.6742 28.4327 33.2734 28.4534C32.8725 28.4739 32.4846 28.5108 32.1096 28.5628C32.0781 28.5106 32.0392 28.4246 31.9923 28.3048C31.9455 28.1851 31.9114 28.0938 31.8912 28.0313C31.693 27.5938 31.4638 27.0989 31.2031 26.547C31.9219 26.2551 32.607 25.9193 33.2584 25.539C33.9092 25.1587 34.4297 24.8204 34.8206 24.5236C35.2113 24.2264 35.581 23.9113 35.9299 23.578C36.279 23.2447 36.5053 23.0131 36.6098 22.8828C36.7141 22.7523 36.813 22.6248 36.9066 22.5L36.9223 22.4842C38.4431 24.3384 39.2195 26.4737 39.2503 28.8906L39.094 28.8594Z" fill="#1E3A2B"/>
</g>
<defs>
<clipPath id="clip0_788_1066">
<rect width="24" height="24" fill="white" transform="translate(17 17)"/>
</clipPath>
</defs>
</svg>
