<svg width="24" height="24" viewBox="0 0 24 24" fill="none" xmlns="http://www.w3.org/2000/svg">
<g clip-path="url(#clip0_788_929)">
<path d="M12.004 5.83789C8.601 5.83789 5.846 8.59589 5.846 11.9959C5.846 15.3989 8.604 18.1539 12.004 18.1539C15.407 18.1539 18.162 15.3959 18.162 11.9959C18.162 8.59289 15.404 5.83789 12.004 5.83789ZM12.004 15.9929C9.795 15.9929 8.007 14.2039 8.007 11.9959C8.007 9.78789 9.796 7.99889 12.004 7.99889C14.212 7.99889 16.001 9.78789 16.001 11.9959C16.002 14.2039 14.213 15.9929 12.004 15.9929Z" fill="#1E3A2B"/>
<path d="M16.948 0.0761191C14.74 -0.0268809 9.271 -0.0218809 7.061 0.0761191C5.119 0.167119 3.406 0.636119 2.025 2.01712C-0.283002 4.32512 0.0119984 7.43512 0.0119984 11.9961C0.0119984 16.6641 -0.248002 19.7021 2.025 21.9751C4.342 24.2911 7.497 23.9881 12.004 23.9881C16.628 23.9881 18.224 23.9911 19.859 23.3581C22.082 22.4951 23.76 20.5081 23.924 16.9391C24.028 14.7301 24.022 9.26212 23.924 7.05212C23.726 2.83912 21.465 0.284119 16.948 0.0761191ZM20.443 20.4481C18.93 21.9611 16.831 21.8261 11.975 21.8261C6.975 21.8261 4.97 21.9001 3.507 20.4331C1.822 18.7561 2.127 16.0631 2.127 11.9801C2.127 6.45512 1.56 2.47612 7.105 2.19212C8.379 2.14712 8.754 2.13212 11.961 2.13212L12.006 2.16212C17.335 2.16212 21.516 1.60412 21.767 7.14812C21.824 8.41312 21.837 8.79312 21.837 11.9951C21.836 16.9371 21.93 18.9541 20.443 20.4481Z" fill="#1E3A2B"/>
<path d="M18.406 7.03401C19.2007 7.03401 19.845 6.38974 19.845 5.59501C19.845 4.80027 19.2007 4.15601 18.406 4.15601C17.6113 4.15601 16.967 4.80027 16.967 5.59501C16.967 6.38974 17.6113 7.03401 18.406 7.03401Z" fill="#1E3A2B"/>
</g>
<defs>
<clipPath id="clip0_788_929">
<rect width="24" height="24" fill="white"/>
</clipPath>
</defs>
</svg>
