<svg width="58" height="58" viewBox="0 0 58 58" fill="none" xmlns="http://www.w3.org/2000/svg">
<circle cx="29" cy="29" r="28.5" fill="white" stroke="#1E3A2B"/>
<g clip-path="url(#clip0_788_1093)">
<g clip-path="url(#clip1_788_1093)">
<path d="M29.004 22.8379C25.601 22.8379 22.846 25.5959 22.846 28.9959C22.846 32.3989 25.604 35.1539 29.004 35.1539C32.407 35.1539 35.162 32.3959 35.162 28.9959C35.162 25.5929 32.404 22.8379 29.004 22.8379ZM29.004 32.9929C26.795 32.9929 25.007 31.2039 25.007 28.9959C25.007 26.7879 26.796 24.9989 29.004 24.9989C31.212 24.9989 33.001 26.7879 33.001 28.9959C33.002 31.2039 31.213 32.9929 29.004 32.9929Z" fill="#1E3A2B"/>
<path d="M33.948 17.0761C31.74 16.9731 26.271 16.9781 24.061 17.0761C22.119 17.1671 20.406 17.6361 19.025 19.0171C16.717 21.3251 17.012 24.4351 17.012 28.9961C17.012 33.6641 16.752 36.7021 19.025 38.9751C21.342 41.2911 24.497 40.9881 29.004 40.9881C33.628 40.9881 35.224 40.9911 36.859 40.3581C39.082 39.4951 40.76 37.5081 40.924 33.9391C41.028 31.7301 41.022 26.2621 40.924 24.0521C40.726 19.8391 38.465 17.2841 33.948 17.0761ZM37.443 37.4481C35.93 38.9611 33.831 38.8261 28.975 38.8261C23.975 38.8261 21.97 38.9001 20.507 37.4331C18.822 35.7561 19.127 33.0631 19.127 28.9801C19.127 23.4551 18.56 19.4761 24.105 19.1921C25.379 19.1471 25.754 19.1321 28.961 19.1321L29.006 19.1621C34.335 19.1621 38.516 18.6041 38.767 24.1481C38.824 25.4131 38.837 25.7931 38.837 28.9951C38.836 33.9371 38.93 35.9541 37.443 37.4481Z" fill="#1E3A2B"/>
<path d="M35.406 24.0338C36.2007 24.0338 36.845 23.3895 36.845 22.5948C36.845 21.8 36.2007 21.1558 35.406 21.1558C34.6113 21.1558 33.967 21.8 33.967 22.5948C33.967 23.3895 34.6113 24.0338 35.406 24.0338Z" fill="#1E3A2B"/>
</g>
</g>
<defs>
<clipPath id="clip0_788_1093">
<rect width="24" height="24" fill="white" transform="translate(17 17)"/>
</clipPath>
<clipPath id="clip1_788_1093">
<rect width="24" height="24" fill="white" transform="translate(17 17)"/>
</clipPath>
</defs>
</svg>
