<svg width="24" height="24" viewBox="0 0 24 24" fill="none" xmlns="http://www.w3.org/2000/svg">
<path d="M21.6 21.5999V14.5679C21.6 11.1119 20.856 8.47192 16.824 8.47192C14.88 8.47192 13.584 9.52792 13.056 10.5359H13.008V8.78392H9.192V21.5999H13.176V15.2399C13.176 13.5599 13.488 11.9519 15.552 11.9519C17.592 11.9519 17.616 13.8479 17.616 15.3359V21.5759H21.6V21.5999Z" fill="#1E3A2B"/>
<path d="M2.712 8.78394H6.696V21.5999H2.712V8.78394Z" fill="#1E3A2B"/>
<path d="M4.704 2.3999C3.432 2.3999 2.4 3.4319 2.4 4.7039C2.4 5.9759 3.432 7.0319 4.704 7.0319C5.976 7.0319 7.008 5.9759 7.008 4.7039C7.008 3.4319 5.976 2.3999 4.704 2.3999Z" fill="#1E3A2B"/>
</svg>
