<svg width="58" height="58" viewBox="0 0 58 58" fill="none" xmlns="http://www.w3.org/2000/svg">
<circle cx="29" cy="29" r="28.5" fill="white" stroke="#1E3A2B"/>
<g clip-path="url(#clip0_788_1081)">
<g clip-path="url(#clip1_788_1081)">
<path d="M38.6 38.5997V31.5677C38.6 28.1117 37.856 25.4717 33.824 25.4717C31.88 25.4717 30.584 26.5277 30.056 27.5357H30.008V25.7837H26.192V38.5997H30.176V32.2397C30.176 30.5597 30.488 28.9517 32.552 28.9517C34.592 28.9517 34.616 30.8477 34.616 32.3357V38.5757H38.6V38.5997Z" fill="#1E3A2B"/>
<path d="M19.712 25.7837H23.696V38.5997H19.712V25.7837Z" fill="#1E3A2B"/>
<path d="M21.704 19.3999C20.432 19.3999 19.4 20.4319 19.4 21.7039C19.4 22.9759 20.432 24.0319 21.704 24.0319C22.976 24.0319 24.008 22.9759 24.008 21.7039C24.008 20.4319 22.976 19.3999 21.704 19.3999Z" fill="#1E3A2B"/>
</g>
</g>
<defs>
<clipPath id="clip0_788_1081">
<rect width="24" height="24" fill="white" transform="translate(17 17)"/>
</clipPath>
<clipPath id="clip1_788_1081">
<rect width="24" height="24" fill="white" transform="translate(17 17)"/>
</clipPath>
</defs>
</svg>
