<svg width="158" height="158" viewBox="0 0 158 158" fill="none" xmlns="http://www.w3.org/2000/svg">
<path d="M17.4671 111.162H84.4788C83.7276 113.769 83.0765 116.529 82.5427 119.467L80.4037 118.908C79.9278 118.783 79.4274 119.076 79.3029 119.552L77.9748 124.628C77.8503 125.104 78.1432 125.605 78.6191 125.729L83.6957 127.057C84.1716 127.182 84.672 126.889 84.7965 126.413L86.1245 121.336C86.249 120.86 85.9562 120.36 85.4802 120.236L83.2396 119.649C83.7843 116.641 84.4496 113.818 85.2229 111.162H98.5055L97.4997 119.098C97.3991 119.902 97.8014 120.635 98.4908 121.023C111.015 128.06 113.612 135.734 113.839 136.02C113.833 136.073 113.812 136.124 113.832 136.177C113.9 136.362 114.105 136.459 114.293 136.391C116.529 135.55 125.988 131.992 128.224 131.149C128.631 130.968 128.869 130.597 128.899 130.167C130.506 130.11 125.481 125.621 131.918 109.296C131.99 109.112 131.9 108.903 131.716 108.831C131.695 108.822 131.675 108.836 131.654 108.831C131.675 108.721 131.697 108.614 131.7 108.502C132.847 107.171 133.567 105.461 133.567 103.57V83.2468C135.787 83.7043 138.08 84.2823 140.436 84.9618L139.947 86.8336C139.822 87.3095 140.115 87.8098 140.591 87.9344L145.667 89.2624C146.143 89.3869 146.644 89.094 146.768 88.6181L148.096 83.5416C148.221 83.0657 147.928 82.5652 147.452 82.4408L142.375 81.1127C141.9 80.9883 141.399 81.2812 141.275 81.757L140.618 84.2669C138.199 83.5696 135.845 82.9808 133.567 82.5154V73.0921C135.471 73.3428 137.303 72.1326 137.728 70.2242C138.269 67.7877 136.258 65.3177 133.567 65.6851V26.1744C133.567 21.988 130.161 18.5823 125.975 18.5823H17.4671C13.2808 18.5823 9.87503 21.988 9.87503 26.1744V103.57C9.87504 107.757 13.2808 111.162 17.4671 111.162ZM85.4281 110.444C88.329 100.856 92.7571 93.65 98.6496 88.8912H101.328L98.5965 110.444H85.4281ZM89.2426 88.173V78.0753H92.0128V68.93H119.687V76.5619L102.467 85.2287C102.142 85.0874 101.695 85.4107 101.5 85.7151L96.6167 88.173H89.2426ZM95.1897 88.8912L89.2426 91.8843V88.8912H95.1897ZM119.687 48.9682V68.2119H92.0128V48.9682H119.687ZM89.2426 51.1294V48.9682H91.6241L89.2426 51.1294ZM118.046 111.46C118.713 113.303 117.601 115.406 115.57 116.146C112.251 117.336 109.23 114.169 110.982 111.162H117.884C117.933 111.265 118.007 111.352 118.046 111.46ZM111.483 110.444C111.723 110.136 111.909 111.329 103.912 88.8912H107.276C114.909 109.847 114.333 109.108 114.791 109.133C115.864 109.19 116.81 109.686 117.443 110.444H111.483ZM103.654 88.173L102.884 86.0339C103.808 85.5212 104.757 85.0474 105.743 84.6288L107.018 88.173H103.654ZM110.815 117.992C112.884 120.252 116.357 120.027 118.212 117.848C118.519 117.473 119.069 117.962 118.758 118.308C116.516 120.954 112.514 120.925 110.283 118.48C109.963 118.128 110.459 117.637 110.815 117.992ZM111.777 88.8912H119.687V96.3063L111.777 88.8912ZM111.011 88.173L107.206 84.6056C107.211 84.6009 107.218 84.6025 107.222 84.5975C107.352 84.4474 107.336 84.2209 107.186 84.0911C107.178 84.0841 107.168 84.0807 107.16 84.0739C110.916 82.6899 115.093 81.9424 119.687 81.846V88.173H111.011ZM109.183 82.6516L119.687 77.3653V81.1294C115.912 81.2073 112.41 81.7171 109.183 82.6516ZM98.7296 87.9129C98.6191 87.9983 98.5096 88.0859 98.4001 88.173H98.213L98.7296 87.9129ZM101.597 86.7718L101.419 88.173H99.5585C100.748 87.286 101.451 86.8682 101.597 86.7718ZM101.493 119.629C101.454 120.133 100.726 119.997 100.789 119.557L102.125 104.131C102.157 103.679 102.878 103.705 102.843 104.203L101.493 119.629ZM132.849 103.57C132.849 105.082 132.343 106.469 131.513 107.606C131.192 106.899 131.585 107.543 120.138 96.7293C120.286 96.6849 120.405 96.5707 120.405 96.4082V88.8912H122.653C123.129 88.8912 123.128 88.173 122.653 88.173H120.405V81.8473C124.27 81.8222 128.42 82.2424 132.849 83.1129V103.57ZM120.405 81.1298V77.0038L131.069 71.6366C131.507 72.2226 132.116 72.6756 132.849 72.9245V82.382C128.427 81.5209 124.277 81.1051 120.405 81.1298ZM10.5932 26.1744C10.5932 22.3843 13.6771 19.3005 17.4671 19.3005H125.975C129.765 19.3005 132.849 22.3843 132.849 26.1744V65.8565C130.766 66.5836 129.692 68.9415 130.695 71.0215L120.405 76.2004V68.93H122.653C123.129 68.93 123.128 68.2119 122.653 68.2119H120.405V48.9682H124.727C125.202 48.9682 125.202 48.2501 124.727 48.2501H120.405V43.5047C120.405 43.0293 119.687 43.0298 119.687 43.5047V48.2501H89.2426V40.7337C89.2426 40.2583 88.5244 40.2588 88.5244 40.7337V48.2501H60.3645C59.889 48.2501 59.8896 48.9682 60.3645 48.9682H88.5244V51.7811L70.418 68.2119H67.6185C67.1431 68.2119 67.1436 68.93 67.6185 68.93H69.6265L66.4024 71.8558C65.6268 74.1253 64.4633 76.2223 63.0126 78.0753H88.5244V88.173H58.0802V83.286C58.0802 82.8105 57.362 82.811 57.362 83.286V88.173H26.9178V74.0976C26.9178 73.6221 26.1996 73.6227 26.1996 74.0976V88.173H18.7155C18.2401 88.173 18.2406 88.8912 18.7155 88.8912H26.1996V94.7173C26.1996 95.1927 26.9178 95.1922 26.9178 94.7173V88.8912H57.362V96.4082C57.362 96.8837 58.0802 96.8831 58.0802 96.4082V88.8912H88.5244V92.2458L75.1937 98.9552C73.4042 96.1169 69.0967 96.8624 68.3656 100.15C67.9165 102.168 69.1825 104.159 71.2015 104.608C74.1465 105.263 76.6136 102.38 75.5185 99.5951L88.5244 93.0492V93.9647C88.5244 94.4401 89.2426 94.4396 89.2426 93.9647V92.6877L96.786 88.8912H97.5038C91.7993 93.774 87.5099 100.986 84.6795 110.444H78.6858C78.6635 110.267 78.526 110.125 78.3429 110.125C28.7977 110.274 31.2187 109.813 31.1393 110.444H17.4671C13.6771 110.444 10.5932 107.36 10.5932 103.57L10.5932 26.1744Z" fill="#1E3A2B"/>
<path d="M18.7155 68.9301H24.7093C25.1847 68.9301 25.1842 68.2119 24.7093 68.2119H18.7155C18.2401 68.2119 18.2406 68.9301 18.7155 68.9301Z" fill="#1E3A2B"/>
<path d="M26.1996 41.8139V48.2502H19.5845C19.1091 48.2502 19.1096 48.9684 19.5845 48.9684H26.1996V55.9398C26.1996 56.1383 26.3603 56.2989 26.5587 56.2989C26.7572 56.2989 26.9178 56.1383 26.9178 55.9398V48.9684H31.8806C32.356 48.9684 32.3555 48.2502 31.8806 48.2502H26.9178V41.8139C26.9178 41.3385 26.1996 41.339 26.1996 41.8139Z" fill="#1E3A2B"/>
<path d="M58.0802 46.5094V43.5048C58.0802 43.0294 57.362 43.0299 57.362 43.5048V46.5094C57.362 46.7079 57.5226 46.8685 57.7211 46.8685C57.9196 46.8685 58.0802 46.7079 58.0802 46.5094Z" fill="#1E3A2B"/>
<path d="M25.9238 32.5566C27.8502 32.5566 29.4118 30.9948 29.4118 29.0684C29.4118 27.142 27.8502 25.5803 25.9238 25.5803C23.9973 25.5803 22.4356 27.142 22.4356 29.0684C22.4356 30.9948 23.9973 32.5566 25.9238 32.5566Z" fill="#1E3A2B"/>
<path d="M39.2299 32.5566C41.1564 32.5566 42.718 30.9948 42.718 29.0684C42.718 27.142 41.1564 25.5803 39.2299 25.5803C37.3035 25.5803 35.7418 27.142 35.7418 29.0684C35.7418 30.9948 37.3035 32.5566 39.2299 32.5566Z" fill="#1E3A2B"/>
<path d="M52.536 32.5566C54.4625 32.5566 56.0242 30.9948 56.0242 29.0684C56.0242 27.142 54.4625 25.5803 52.536 25.5803C50.6097 25.5803 49.0479 27.142 49.0479 29.0684C49.0479 30.9948 50.6097 32.5566 52.536 32.5566Z" fill="#1E3A2B"/>
<path d="M108.2 38.237C108.675 38.237 108.675 37.5188 108.2 37.5188C14.3054 37.688 19.0908 37.1668 19.0908 37.8779C19.0908 38.5855 14.5225 38.0682 108.2 38.237Z" fill="#1E3A2B"/>
<path d="M129.064 11.7365C128.616 11.8959 128.859 12.5726 129.306 12.4126C132.105 11.4118 134.655 11.167 136.889 11.6818C141.183 12.6731 144.086 16.7144 142.162 20.5826C141.122 20.5988 140.081 21.0469 139.536 22.0015C139.124 22.7246 139.534 23.7656 140.457 23.3193C141.346 22.8838 142.072 22.1789 142.589 21.324C145.77 21.6999 147.506 27.814 144.465 30.0256C142.146 28.0986 141.001 30.2551 141.813 31.0383C142.388 31.5925 143.662 31.296 144.381 30.9191C146.915 33.4082 146.948 37.6072 146.718 40.0009C146.673 40.4752 147.387 40.5465 147.434 40.0696C147.672 37.577 147.63 33.2252 144.998 30.52C148.363 27.9001 146.499 21.3423 142.939 20.6514C145.395 15.1066 139.317 8.07184 129.064 11.7365ZM140.142 22.6734C140.132 22.679 140.113 22.6881 140.104 22.7014C139.998 22.1988 140.82 21.5085 141.695 21.3492C141.281 21.9124 140.755 22.3732 140.142 22.6734ZM142.279 30.3146C142.324 30.1497 142.468 29.9996 142.613 29.9653C143.031 29.8718 143.452 30.1571 143.791 30.4057C143.307 30.6062 142.14 30.8211 142.279 30.3146Z" fill="#1E3A2B"/>
<path d="M13.8299 119.155C14.1841 118.909 14.7964 119.335 15.1281 119.61C15.4966 119.915 15.9511 119.36 15.5868 119.058C14.4911 118.15 13.3988 118.02 12.8698 119.333C11.6604 122.336 14.0037 126.838 18.914 126.838C23.4889 126.838 26.7158 123.446 29.2505 119.687C29.516 119.296 28.9228 118.89 28.6558 119.286C27.4249 121.11 25.7171 123.384 23.4153 124.793C21.0861 126.221 18.3551 126.52 16.2882 125.58C13.9653 124.522 12.6797 121.728 13.5361 119.601C13.5999 119.443 13.6911 119.249 13.8299 119.155Z" fill="#1E3A2B"/>
<path d="M29.9042 129.697C30.8047 128.398 31.6589 127.044 32.4424 125.672C32.5405 125.5 32.4802 125.281 32.3084 125.182C31.7637 124.875 31.8999 125.561 29.3136 129.288C29.0433 129.679 29.632 130.087 29.9042 129.697Z" fill="#1E3A2B"/>
<path d="M41.7871 115.451C38.3126 118.555 37.1225 123.918 38.9558 128.201C40.8078 132.528 45.5525 135.329 50.1374 134.952C50.6014 134.916 50.5632 134.21 50.0799 134.237C45.735 134.581 41.3327 131.928 39.6165 127.918C37.9003 123.91 39.014 118.891 42.2655 115.986C42.6199 115.669 42.1403 115.134 41.7871 115.451Z" fill="#1E3A2B"/>
<path d="M130.373 133.446C130.013 133.275 129.607 133.258 129.233 133.391L116.193 138.079C115.419 138.357 115.014 139.209 115.293 139.987L117.56 146.29C117.837 147.063 118.693 147.467 119.468 147.189L132.507 142.502C133.281 142.223 133.685 141.367 133.407 140.593C131.15 134.701 131.357 133.908 130.373 133.446ZM132.265 141.826L129.263 142.905L126.635 137.192C126.438 136.76 125.784 137.061 125.983 137.493L128.584 143.149L119.225 146.513C118.823 146.656 118.379 146.449 118.236 146.047L115.97 139.745C115.825 139.343 116.032 138.901 116.436 138.755L119.511 137.65L121.854 143.533C122.03 143.975 122.696 143.709 122.522 143.268L120.187 137.406L129.475 134.067C129.881 133.921 130.322 134.135 130.465 134.534L132.731 140.835C132.875 141.237 132.666 141.681 132.265 141.826Z" fill="#1E3A2B"/>
<path d="M25.3512 64.9038C25.3512 76.3229 34.6444 85.6162 46.0779 85.6162C57.4623 85.6162 66.8477 76.3853 66.8477 64.9038C66.8477 53.4416 57.5257 44.1196 46.0779 44.1196C34.6444 44.1196 25.3512 53.4416 25.3512 64.9038ZM31.2977 68.7389C30.6928 66.4507 30.6384 63.8773 31.1972 61.4565C31.3087 60.973 32.0216 61.1757 31.8866 61.6145C31.3939 63.7597 31.3903 66.1933 31.9872 68.5522C32.1137 68.9953 31.4301 69.2238 31.2977 68.7389ZM34.4721 54.9498C36.0664 53.0825 38.1061 51.6031 40.3755 50.6838C40.8126 50.5017 41.0729 51.1901 40.634 51.3589C38.4795 52.2351 36.5404 53.6283 35.0179 55.4238C34.6878 55.7539 34.1649 55.3255 34.4721 54.9498ZM40.7921 79.2244C38.5082 78.3769 36.4255 76.9693 34.7737 75.1451C34.4534 74.7929 34.9499 74.3015 35.3052 74.6567C36.8708 76.3947 38.8673 77.7449 41.0506 78.5492C41.4892 78.718 41.2531 79.3783 40.7921 79.2244ZM54.8253 77.4145C52.8145 78.8221 50.4588 79.7271 48.0313 80.0431H47.9883C47.5555 80.0431 47.48 79.3912 47.9452 79.3249C50.2577 79.0376 52.4984 78.1758 54.4232 76.8257C54.8406 76.56 55.1963 77.1981 54.8253 77.4145ZM59.4217 57.3772C61.9163 61.8021 62.0828 67.34 59.6516 71.9564C59.4063 72.3973 58.7828 72.0318 59.0196 71.626C61.3621 67.1285 61.1364 61.8764 58.8041 57.7363C58.5663 57.3288 59.1822 56.9667 59.4217 57.3772ZM47.5717 49.6496C50.0135 49.8938 52.3979 50.7269 54.4519 52.0627C54.8289 52.3369 54.4664 52.9158 54.0497 52.666C52.0963 51.3876 49.8412 50.5976 47.5143 50.3678C47.0502 50.3348 47.0885 49.6126 47.5717 49.6496ZM56.2186 64.8895C56.2186 70.4626 51.6797 75.0014 46.0923 75.0014C40.5192 75.0014 35.9802 70.4626 35.9802 64.8895C35.9802 59.2876 40.5192 54.7488 46.0923 54.7488C51.6797 54.7488 56.2186 59.2876 56.2186 64.8895Z" fill="#1E3A2B"/>
</svg>
