<svg width="158" height="158" viewBox="0 0 158 158" fill="none" xmlns="http://www.w3.org/2000/svg">
<path d="M43.6136 115.324C46.4176 119.7 52.3697 122.595 56.9344 121.585L124.097 106.213C126.993 107.501 130.439 108.204 133.529 107.338C139.124 105.819 145.798 98.4718 147.434 92.9066C149.303 86.6738 147.193 81.3909 143.499 75.9831C142.194 74.0733 138.12 67.6961 133.802 61.7051L140.401 53.3372C144.576 48.8793 133.304 38.3419 129.197 42.704L122.424 48.1178L106.441 60.5522L95.1238 42.9424C92.8084 38.4937 86.6618 36.3467 82.2833 37.3992C81.6939 37.5395 81.4132 38.1991 81.736 38.7042C83.043 40.764 86.3014 46.0027 90.2607 52.3809C90.1168 52.4129 80.6758 54.512 81.1632 54.4036L50.4209 30.7678C50.2645 30.6471 50.0387 30.6759 49.9174 30.8337C49.9052 30.8496 49.9121 30.8703 49.903 30.8874C49.3257 30.5925 48.6475 30.5942 48.2493 30.952L41.5018 37.0159C41.7644 36.9768 41.3065 36.9227 44.1097 37.8768C44.2927 37.9412 44.3879 38.1419 44.3229 38.3242C44.2559 38.5141 44.0468 38.6017 43.8754 38.5373L41.4312 37.6684C41.2645 37.6098 41.1867 37.4367 41.2205 37.2688L35.6643 42.262C35.9353 42.2746 34.9978 42.0139 39.1809 43.5052C39.3625 43.5717 39.4564 43.7732 39.3899 43.9554C39.3235 44.1364 39.1231 44.2307 38.9397 44.1644L35.5225 42.9166C35.377 42.8633 35.3135 42.7204 35.318 42.5731L23.9388 52.7995C23.1824 53.4792 24.018 54.7422 25.2415 54.7821L70.8041 56.7065C65.1753 57.9586 89.0425 52.6494 26.5153 66.5583C22.4782 60.24 19.0975 54.9351 17.6462 52.6246C17.5403 52.457 17.3165 52.4072 17.151 52.511C17.1267 52.5263 17.1244 52.5562 17.1051 52.5757C16.5836 52.0338 15.7641 51.9018 15.1052 52.3167C12.074 54.2253 8.69187 58.4493 10.2777 61.8173C54.9664 133.546 40.7487 110.725 43.6136 115.324ZM34.5974 50.1958C33.0241 49.6819 31.4481 49.1337 29.9125 48.5664C29.7302 48.4992 29.6378 48.2977 29.7049 48.1161C29.7721 47.9345 29.9748 47.842 30.1551 47.9085C31.6825 48.4725 33.2502 49.0172 34.8153 49.5283C34.9997 49.5887 35.0997 49.7867 35.0401 49.9711C34.9801 50.1535 34.7843 50.2558 34.5974 50.1958ZM96.6181 76.171C96.5623 76.3587 96.7134 76.6308 97.0207 76.629C98.4176 76.5658 98.9548 76.6615 99.537 76.7226C98.1494 81.4801 101.11 86.2501 104.55 89.8172L96.364 92.1506L91.1541 88.025C91.6557 85.6368 94.1936 73.5531 94.6929 71.176L95.0829 71.2178C96.9725 72.1668 97.2211 74.1183 96.6181 76.171ZM93.8581 70.4371C93.8564 70.4432 93.8493 70.4452 93.8478 70.4515C93.8444 70.466 93.8561 70.4777 93.8546 70.4922C93.8363 70.6467 93.8409 70.5874 93.8864 70.6815C93.9147 70.7409 93.9364 70.7812 94.0309 70.834L92.1773 79.6588L86.8173 70.8921L95.2615 69.2494C94.0069 70.2608 93.9203 70.2145 93.8581 70.4371ZM91.9619 80.6838L91.2034 84.2949L77.107 88.2963L67.8356 74.5847L86.0648 71.0385L91.9619 80.6838ZM76.3797 88.5028L60.9075 92.8946L49.8236 78.0887L67.0694 74.7338L76.3797 88.5028ZM60.1673 93.1047L46.0714 97.1059C43.4608 93.0331 39.6626 87.1059 35.6542 80.8452L49.0402 78.2411L60.1673 93.1047ZM33.5031 79.5977C33.6574 79.4714 33.882 79.4854 34.0082 79.6398C34.1205 79.7942 34.1065 80.0047 33.9521 80.131C31.8049 81.8992 30.107 84.2007 29.0404 86.7547C28.8643 87.1952 28.2268 86.9249 28.3949 86.4881C29.5035 83.8218 31.2716 81.4362 33.5031 79.5977ZM44.2217 114.942L44.1929 114.895C43.1821 111.045 45.8129 106.79 48.7714 104.83C49.3878 104.419 49.5795 103.65 49.3331 102.977C49.3542 102.969 49.3773 102.971 49.397 102.958C49.5639 102.851 49.613 102.629 49.5057 102.463C49.2954 102.135 48.1763 100.39 46.4766 97.7381L60.6286 93.721L72.4482 109.51C72.5687 109.67 72.794 109.7 72.9511 109.582C73.1096 109.463 73.1418 109.238 73.0233 109.079L61.3688 93.5109L76.8036 89.1297L84.7239 100.843C84.8362 101.009 85.0607 101.05 85.2226 100.939C85.3867 100.828 85.4302 100.605 85.3187 100.441L77.531 88.9232L91.0365 85.0896L89.0751 94.4272C89.0181 94.6984 89.2763 94.9222 89.5247 94.8466L98.9712 92.1536C104.129 100.455 103.833 100.403 104.217 100.403C104.496 100.403 104.67 100.096 104.524 99.857L99.6883 91.9492L105.123 90.3998C106.829 91.9603 104.915 90.5922 118.056 101.998C119.479 103.254 120.779 104.369 122.29 105.292C122.546 105.447 122.832 105.564 123.099 105.705L56.7766 120.884C52.5579 121.818 46.9184 119.15 44.2217 114.942ZM142.906 76.3885C146.465 81.597 148.551 86.6761 146.746 92.7025C145.504 96.923 141.076 102.501 136.465 105.251C133.545 106.995 130.767 107.563 126.754 106.421C123.219 105.435 121.286 103.891 118.53 101.457C105.531 90.1684 106.222 90.4192 105.483 89.7443C103.957 88.204 102.527 86.5598 101.473 84.6588C100.137 82.2317 99.386 79.1553 100.346 76.5582C101.183 74.1634 103.56 73.313 105.813 73.6392C107.061 73.8005 108.353 74.3195 109.899 75.2838C114.988 78.4642 119.018 83.6712 122.419 87.8632C122.518 87.9854 122.674 88.0002 122.813 87.9516C125.186 90.498 125.049 90.454 125.282 90.454C125.593 90.454 125.756 90.0839 125.547 89.853C124.608 88.8215 120.904 84.8434 120.865 84.7959C120.733 83.1511 120.514 81.5745 120.241 80.056C120.211 79.7076 120.187 79.3595 120.151 79.0133L133.338 62.2933C138.18 69.0491 141.347 74.1041 142.906 76.3885ZM119.48 79.8647C119.535 80.1626 119.55 80.3357 119.605 81.0455L119.13 80.3086L119.48 79.8647ZM129.899 48.247C131.372 49.2294 133.042 50.338 134.165 51.9097C134.35 52.136 134.165 52.457 133.884 52.457C133.786 52.457 133.674 52.415 133.604 52.3167C132.537 50.8572 131.007 49.8187 129.52 48.8224C129.119 48.5888 129.532 47.9798 129.899 48.247ZM123.903 47.8538C128.661 50.1959 132.446 53.8764 135.16 58.8237C127.998 67.9045 120.54 77.3609 117.64 81.0377C113.914 77.0151 107.666 71.2587 102.575 73.299C101.237 73.8344 100.531 74.5721 99.9941 75.6081C99.9222 75.7468 99.8417 75.879 99.7812 76.0259C98.9383 75.9019 98.1291 75.8688 97.4345 75.8926C97.469 75.7465 97.4866 75.6087 97.512 75.4673C97.7163 75.3779 104.775 69.5398 121.006 56.2688C121.16 56.1433 121.182 55.9168 121.057 55.7639C120.931 55.6103 120.705 55.5878 120.552 55.7134L97.6192 74.4931C97.6678 72.8399 97.0663 71.6912 95.9364 70.885C95.9329 70.8829 95.86 70.8359 95.8564 70.8338C95.7996 70.7959 95.7218 70.7496 95.726 70.7587C95.5301 70.6196 95.1749 70.4555 94.9685 70.387C97.9419 68.0715 84.2261 78.7528 123.903 47.8538ZM96.5166 68.273L86.4172 70.2376L81.0601 61.4757C80.9563 61.3059 80.734 61.2547 80.5663 61.3564C80.3973 61.4602 80.344 61.6812 80.4471 61.8502L85.6647 70.384L67.398 73.9375L62.8096 67.1517C62.6988 66.9876 62.4757 66.9441 62.3109 67.0556C62.1468 67.1664 62.1033 67.3901 62.2148 67.5543L66.6318 74.0866L49.3451 77.4495L41.384 66.815C41.2641 66.6558 41.0397 66.625 40.8812 66.7428C40.7227 66.862 40.6904 67.0865 40.8089 67.2457L48.5617 77.6019L35.2373 80.194C32.4353 75.817 29.5539 71.3135 26.927 67.2029L73.5917 56.8242L81.0608 57.1397C82.15 57.1853 82.5701 56.2405 81.9413 55.5073C81.9532 55.4958 81.9727 55.5002 81.9831 55.4868C82.1037 55.3297 82.0742 55.1039 81.9171 54.9833L81.9063 54.975C82.0503 54.943 91.2483 52.8974 90.6623 53.0277C93.2587 57.2109 96.1301 61.8404 98.9479 66.3814L96.5166 68.273ZM63.1324 49.9216L41.3278 49.0004C40.8506 48.9802 40.5269 48.4912 40.8179 48.2297L50.3187 39.6914C50.4981 39.5303 50.836 39.5475 51.0733 39.7301L63.3769 49.1895C63.7575 49.4822 63.6041 49.9416 63.1324 49.9216Z" fill="#1E3A2B"/>
<path d="M112.399 75.4206C112.491 75.4206 112.583 75.3855 112.653 75.3154C132.853 55.1119 131.545 56.3363 131.867 56.2345C132.313 56.0933 132.111 55.4113 131.649 55.55C131.076 55.7317 132.931 54.0338 112.145 74.8076C111.918 75.035 112.083 75.4206 112.399 75.4206Z" fill="#1E3A2B"/>
<path d="M105.513 78.4113C104.114 78.3839 102.981 78.8657 102.344 79.7256C101.419 80.9726 101.785 82.7624 102.624 83.8853C103.303 84.7928 104.332 85.7172 105.449 86.4214C105.875 86.6904 106.453 86.6556 106.852 86.3428C108.237 85.2564 109.249 83.8972 109.949 82.188C110.121 81.7721 110.043 81.2798 109.752 80.9347C108.852 79.8687 107.433 78.447 105.513 78.4113ZM109.286 81.9145C108.634 83.5059 107.692 84.7697 106.409 85.7775C106.244 85.9052 106.001 85.9199 105.832 85.814C101.011 82.7727 101.909 79.0269 105.5 79.1294C106.739 79.1526 107.915 79.8736 109.203 81.3976C109.322 81.5386 109.355 81.7462 109.286 81.9145Z" fill="#1E3A2B"/>
<path d="M104.665 39.8005C103.179 35.9739 102.196 31.9629 101.745 27.8796C101.693 27.4038 100.979 27.4879 101.031 27.9582C101.489 32.1038 102.486 36.1759 103.996 40.06C104.169 40.5038 104.838 40.2415 104.665 39.8005Z" fill="#1E3A2B"/>
<path d="M111.267 38.58C111.772 36.9634 112.436 35.3875 113.237 33.8957C113.463 33.4755 112.828 33.1411 112.605 33.5562C111.781 35.0873 111.1 36.7053 110.581 38.3654C110.439 38.8191 111.124 39.0331 111.267 38.58Z" fill="#1E3A2B"/>
<path d="M118.115 40.3833C119.562 37.9896 121.149 35.6422 122.832 33.4049C123.119 33.0244 122.543 32.5932 122.259 32.9729C120.561 35.2298 118.96 37.5976 117.501 40.0116C117.255 40.4191 117.87 40.7893 118.115 40.3833Z" fill="#1E3A2B"/>
<path d="M51.0718 128.882C51.2863 128.916 51.4565 128.776 51.4905 128.594C51.5263 128.398 51.3972 128.212 51.2022 128.175C44.2252 126.893 37.8507 123.211 33.254 117.808C33.125 117.657 32.8998 117.64 32.7476 117.767C32.5968 117.896 32.5786 118.122 32.707 118.274C37.4109 123.802 43.9328 127.57 51.0718 128.882Z" fill="#1E3A2B"/>
<path d="M31.265 125.777C31.1373 125.929 31.157 126.156 31.3092 126.283C33.0422 127.736 34.8671 129.114 36.732 130.377C36.8938 130.487 37.1183 130.447 37.2307 130.281C37.3415 130.117 37.2987 129.894 37.1346 129.782C35.29 128.533 33.4848 127.17 31.7707 125.733C31.6192 125.605 31.3933 125.626 31.265 125.777Z" fill="#1E3A2B"/>
</svg>
