<svg width="158" height="158" viewBox="0 0 158 158" fill="none" xmlns="http://www.w3.org/2000/svg">
<path d="M10.6672 124.326L12.8033 129.382C12.8343 129.97 13.3936 130.659 14.1656 130.659H24.2681C24.2914 130.744 24.2691 130.734 24.3459 131.007C24.431 131.151 25.0064 134.191 28.7469 137.01C31.7937 139.344 36.8732 142.134 40.6909 141.728C46.393 141.108 51.0355 138.789 55.5412 135.422C60.0052 132.085 60.3136 132.466 63.729 130.659H99.5602C100.238 131.017 100.398 131.097 101.567 131.651C106.37 133.929 106.394 134.62 110.004 137.052C114.638 140.16 120.435 141.767 123.363 141.767C127.002 141.767 131.589 139.273 134.556 137.011C138.275 134.187 138.859 131.151 138.944 131.007C138.988 130.845 139.022 130.663 139.023 130.659H143.631C144.291 130.659 144.807 130.2 144.965 129.612C145.334 129.612 146.532 125.775 146.958 124.396C148.056 123.96 148.391 122.722 147.823 121.794L132.302 96.5833V31.9245C132.302 30.6769 131.298 29.6731 130.051 29.6731H29.2375C27.9899 29.6731 26.9717 30.6769 26.9717 31.9245V96.3271C26.6029 96.3271 27.7718 94.9389 9.99279 121.744C9.4245 122.617 9.68871 123.815 10.6672 124.326ZM55.1106 134.847C50.7403 138.118 46.2081 140.405 40.6144 141.014C37.0684 141.394 32.2431 138.784 29.181 136.438C24.8307 133.16 24.2559 129.587 24.6762 124.206C25.457 114.47 32.3939 103.26 37.9502 102.997C39.3123 102.938 40.0668 103.654 40.1294 104.196C38.6811 105.185 37.4771 106.508 36.6294 108.044C36.2817 107.926 35.9383 107.795 35.5766 107.716C35.1148 107.614 34.9587 108.317 35.4237 108.418C36.4589 108.643 37.4373 109.046 38.3322 109.613C38.7308 109.867 39.1176 109.261 38.7166 109.007C38.2718 108.725 37.8035 108.491 37.3232 108.285C38.1043 106.909 39.1892 105.72 40.4911 104.821C40.6285 104.816 40.7596 104.756 40.8136 104.621C41.1271 103.843 41.9259 103.194 42.8945 102.927C44.6211 102.475 48.7262 103.09 48.148 104.957C46.2243 106.147 44.5752 107.77 43.3439 109.668C42.9092 109.383 42.423 108.932 42.1861 109.391C42.0957 109.567 42.1658 109.784 42.3425 109.874C44.112 110.78 44.2738 111.636 44.6921 111.636C44.9909 111.636 45.1685 111.28 44.9649 111.043C44.6588 110.687 44.3126 110.361 43.9423 110.065C45.1119 108.258 46.6799 106.714 48.5082 105.579C48.6016 105.561 48.6875 105.513 48.7416 105.426C50.0625 103.362 53.2439 103.289 55.0755 105.506C55.776 106.346 56.2092 107.884 55.4099 108.798C55.3944 108.801 55.3797 108.79 55.3645 108.795C52.755 109.703 50.7511 111.721 48.9828 113.558C48.8744 113.43 48.7834 113.287 48.6659 113.169C48.3323 112.832 47.8214 113.339 48.1567 113.676C49.4118 114.934 49.235 115.777 49.739 115.777C49.9958 115.777 50.1675 115.516 50.0714 115.281C49.904 114.875 49.6886 114.485 49.44 114.118C51.0476 112.446 52.8596 110.621 55.1011 109.681C55.2013 109.751 55.3215 109.787 55.4416 109.733C58.7072 108.268 62.1958 106.943 65.7569 106.88C65.3428 106.98 64.9544 107.128 64.6398 107.277C64.3579 107.411 64.1685 107.699 64.1573 108.01C64.1187 109.076 64.3277 110.034 64.7962 110.935C64.9428 111.219 65.2346 111.393 65.5453 111.393C65.9033 111.393 66.9844 111.146 67.7489 110.725C69.4337 109.798 69.4388 107.731 67.4536 106.949C68.2958 107.058 68.9269 107.269 69.4258 107.619C70.0767 108.083 70.5992 108.982 70.3376 109.804C69.5309 112.478 56.9181 113.696 50.6629 120.286C49.3952 121.622 48.3344 123.428 48.5558 125.263C48.6446 126.055 49.0109 126.397 49.7775 126.498C54.346 126.998 56.8836 122.912 63.4104 124.043C66.7641 124.593 67.9914 127.122 64.7263 129.249C66.1091 128.184 65.9074 126.446 64.1882 125.704C63.1368 125.25 62.0371 125.664 61.3007 126.014C61.0195 126.148 60.8301 126.435 60.8175 126.745C60.8557 127.199 60.7028 128.221 61.4564 129.672C61.6266 130.001 61.9859 130.172 62.3184 130.122C63.0365 130.024 63.7532 129.795 64.3177 129.5C60.9526 131.552 60.4528 130.853 55.1106 134.847ZM38.7439 102.308L38.8162 102.178C39.183 101.507 39.8485 101.089 40.552 101.089H117.503C118.14 101.089 118.728 101.45 119.037 102.033L119.053 102.063C117.285 102.152 114.873 102.488 114.431 104.209C113.086 103.036 111.172 102.778 109.375 103.686C109.212 103.18 109.448 103.543 96.6242 103.425V102.078C96.6242 101.603 95.906 101.603 95.906 102.078V103.425H76.7531L76.9359 102.054C76.9995 101.584 76.2879 101.486 76.224 101.959L76.0284 103.425H56.423L56.6655 102.07C56.7503 101.598 56.0397 101.483 55.9585 101.943L55.6934 103.425C55.5459 103.426 53.1005 103.433 53.2561 103.432C52.1983 103.069 51.2515 103.015 50.1727 103.425H48.4406C47.8777 102.752 47.1205 102.503 46.2175 102.3C44.1523 101.872 42.0022 101.89 40.6502 103.519C40.32 102.959 39.6285 102.533 39.0039 102.375C38.917 102.353 38.8312 102.321 38.7439 102.308ZM106.876 108.523C103.625 107.138 100.182 106.012 96.6242 106.164V104.144H108.645C106.937 105.389 106.43 107.206 106.876 108.523ZM98.9702 107.925C99.0116 107.946 99.0424 107.991 99.0438 108.037C99.0782 108.975 98.8959 109.815 98.4856 110.604C98.461 110.649 98.4077 110.679 98.3586 110.675C94.4868 110.143 95.4051 107.487 97.3802 107.487C97.8305 107.487 98.3516 107.632 98.9702 107.925ZM111.747 120.42C112.705 121.341 113.596 122.52 113.908 123.818H106.221C103.118 122.799 99.7958 123.046 98.1342 123.818H65.1553C63.5366 123.065 60.2475 122.774 57.0681 123.818H49.3812C49.5503 123.103 49.8999 122.425 50.3272 121.823C52.9416 118.134 58.4795 115.809 62.7433 114.268H100.545C104.297 115.624 108.556 117.331 111.747 120.42ZM62.2202 129.411C62.1697 129.415 62.1171 129.387 62.0939 129.342C61.6837 128.552 61.5013 127.712 61.5357 126.773C61.5371 126.728 61.5679 126.682 61.6093 126.662C62.5786 126.202 63.308 126.106 63.9034 126.363C65.5919 127.092 65.2788 128.992 62.2202 129.411ZM98.5508 113.55H64.7387C66.6344 112.873 68.5039 112.209 69.2797 111.815C70.264 111.316 71.0377 110.612 71.117 109.507H75.2172L74.8361 112.365C74.7743 112.834 75.484 112.935 75.5486 112.46L75.9424 109.507H92.2037C92.2155 109.677 92.2128 109.849 92.2646 110.011C92.6244 111.209 93.823 111.802 94.9445 112.222C96.1255 112.68 97.3368 113.116 98.5508 113.55ZM67.2432 107.627C68.9517 108.366 68.5907 110.259 65.56 110.675C65.5088 110.679 65.4569 110.65 65.4338 110.605C64.8046 109.394 64.9132 108.49 64.8755 108.035C64.8769 107.991 64.9071 107.945 64.9477 107.926C65.6681 107.585 66.5105 107.311 67.2432 107.627ZM56.4137 108.523C56.7292 107.6 56.5027 106.496 56.026 105.645L56.2945 104.144H75.9326L75.3131 108.789H71.0539C70.5961 106.917 68.7304 106.276 66.8147 106.165C63.2154 105.968 59.7108 107.117 56.4137 108.523ZM55.4366 104.861C55.1927 104.594 54.9305 104.353 54.6435 104.144H55.565L55.4366 104.861ZM92.2662 108.789H76.0381L76.6574 104.144H95.906V106.215C94.1996 106.401 92.6684 107.113 92.2662 108.789ZM48.9483 104.144C48.9197 104.167 48.886 104.185 48.8581 104.209C48.8524 104.186 48.8386 104.166 48.832 104.144H48.9483ZM85.5668 127.891H74.7397C74.2708 127.891 74.2608 127.174 74.7397 127.174H85.5668C86.0459 127.174 86.0349 127.891 85.5668 127.891ZM134.121 136.439C131.046 138.784 126.201 141.39 122.675 141.014C118.523 140.562 114.051 138.9 110.404 136.455C106.841 134.055 106.741 133.311 101.874 131.002C99.9376 130.085 96.4931 128.593 96.6508 126.486C96.7656 125.078 98.4925 124.264 99.8827 124.042C106.367 122.92 109.044 126.991 113.521 126.497C114.254 126.4 114.643 126.071 114.733 125.266C114.976 123.251 113.709 121.311 112.246 119.903C108.937 116.701 104.568 114.956 100.733 113.572C95.3855 111.62 93.3705 111.196 92.9505 109.799C92.6889 108.978 93.2177 108.082 93.8777 107.619C94.6889 107.04 95.7565 106.916 96.7453 106.882C94.1194 107.554 94.1209 110.819 98.2611 111.386C98.5887 111.435 98.9503 111.267 99.1224 110.936C99.8397 109.556 99.7181 108.53 99.762 108.009C99.7494 107.698 99.56 107.411 99.2788 107.277C98.9926 107.141 98.6415 107.009 98.2692 106.909C101.282 107.111 104.241 108.162 107.045 109.382C107.015 109.537 107.065 109.698 107.212 109.771C110.035 111.177 112.549 113.237 114.485 115.725C114.532 115.785 114.605 115.796 114.673 115.817L113.604 116.535C113.308 116.734 113.453 117.192 113.804 117.192C114.01 117.192 113.905 117.171 116.739 115.294C117.135 115.027 116.731 114.433 116.339 114.698L115.116 115.519C115.119 115.438 115.105 115.354 115.051 115.285C113.234 112.947 110.908 111.005 108.312 109.574C108.4 109.407 108.345 109.201 108.185 109.101C107.052 108.394 107.354 106.537 108.215 105.505C110.022 103.318 113.159 103.349 114.515 105.388C114.538 105.445 114.554 105.506 114.607 105.546C117.566 107.796 118.433 110.07 118.724 110.251C118.449 110.401 118.161 110.534 117.895 110.694C117.489 110.938 117.859 111.552 118.266 111.309C118.903 110.926 119.572 110.569 120.255 110.247C120.683 110.047 120.382 109.396 119.949 109.598C119.709 109.711 119.485 109.85 119.249 109.971C119.253 109.904 119.261 109.836 119.225 109.773C118.209 107.97 116.807 106.357 115.173 105.085C115.172 105.082 115.174 105.079 115.173 105.076C114.988 104.696 115.112 104.144 115.466 103.791C115.897 103.348 116.565 103.15 117.217 103.003C119.055 102.624 121.052 102.595 122.174 104.099C122.17 104.102 122.164 104.101 122.16 104.105C122.026 104.252 122.037 104.479 122.183 104.612C124.002 106.27 124.503 107.995 124.764 108.518C124.577 108.566 124.386 108.595 124.201 108.649C123.748 108.78 123.94 109.474 124.401 109.339C125.006 109.162 125.626 109.019 126.241 108.91C126.719 108.826 126.568 108.107 126.117 108.203C125.883 108.244 125.653 108.315 125.419 108.365C125.418 108.329 125.438 108.296 125.425 108.261C124.944 106.877 124.148 105.621 123.136 104.566C123.149 104.512 123.172 104.459 123.158 104.402C122.881 103.278 125.982 101.201 130.564 106.024C135.882 111.668 138.913 119.364 138.697 127.422C138.606 130.845 137.762 133.674 134.121 136.439ZM35.0024 38.3204C35.0024 37.4312 35.7194 36.7142 36.5942 36.7142H122.694C123.569 36.7142 124.286 37.4312 124.286 38.3204V87.795C124.286 88.684 123.569 89.4011 122.694 89.4011H36.5942C35.7194 89.4011 35.0024 88.684 35.0024 87.795V38.3204ZM10.5931 122.137L26.8253 97.5591C27.0943 97.6972 21.591 97.5824 132.098 97.6218L147.211 122.17C147.653 122.891 147.154 123.818 146.284 123.818H139.301C138.804 118.37 136.783 112.889 133.316 108.23C131.2 105.387 128.184 101.956 124.651 102.295C123.853 102.377 123.019 102.875 122.639 103.519C122.032 102.788 121.08 102.243 119.901 102.125C119.778 101.981 119.266 100.371 117.503 100.371H40.552C38.6844 100.371 38.0638 102.132 37.9396 102.276C36.1103 102.342 34.218 103.422 32.2024 105.532C27.4082 110.62 24.5665 117.474 23.9889 123.818H11.4986C10.6563 123.818 10.1087 122.883 10.5931 122.137Z" fill="#1E3A2B"/>
<path d="M63.9567 119.505H93.8153C94.2907 119.505 94.2902 118.787 93.8153 118.787H63.9567C63.4813 118.787 63.4818 119.505 63.9567 119.505Z" fill="#1E3A2B"/>
<path d="M49.0229 78.2857L69.8285 76.0239L69.5353 79.9767C69.4455 80.9887 70.2054 81.8858 71.2283 81.9587L105.202 84.4821C106.251 84.5476 107.108 83.7789 107.177 82.7884C108.358 66.9865 107.904 73.0642 109.085 57.2613C109.157 56.253 108.384 55.3705 107.377 55.2997L88.5452 53.8928L87.487 44.1335C87.3811 43.1235 86.4778 42.3857 85.4566 42.4951C75.4759 43.4624 55.5789 45.7318 45.6193 46.8112C44.5908 46.9197 43.8581 47.843 43.9809 48.8416L46.9925 76.6473C47.0997 77.6613 48.0042 78.3929 49.0229 78.2857ZM108.368 57.2087L106.461 82.7365C106.418 83.3566 105.872 83.8076 105.254 83.7653L71.2802 81.2419C70.6714 81.1992 70.1955 80.6673 70.2514 80.0349C70.3888 78.182 71.9389 57.2899 72.1443 54.5212C72.1901 53.8486 72.8124 53.4248 73.3506 53.4783L107.325 56.0164C107.951 56.0606 108.411 56.6112 108.368 57.2087ZM45.6957 47.5252C45.8397 47.5076 85.5078 43.2028 85.6523 43.2028C86.2218 43.2028 86.712 43.6327 86.773 44.2099L87.8167 53.8339L73.4025 52.7615C72.3504 52.6955 71.4968 53.4836 71.4275 54.47L71.2165 57.315C69.0857 55.475 67.538 54.1344 67.4835 54.0663C67.1106 54.0663 51.8954 72.6516 51.8954 72.6516L70.2498 70.3449L69.8825 75.2955L48.9465 77.5717C48.3307 77.6398 47.771 77.1874 47.7065 76.5709L44.6942 48.7596C44.6187 48.1437 45.0737 47.5907 45.6957 47.5252Z" fill="#1E3A2B"/>
<path d="M53.2296 58.9666C55.5617 58.9666 57.4938 57.0346 57.4938 54.7028C57.4938 52.3708 55.5617 50.4387 53.2296 50.4387C50.8978 50.4387 48.9655 52.3708 48.9655 54.7028C48.9655 57.0346 50.8978 58.9666 53.2296 58.9666Z" fill="#1E3A2B"/>
<path d="M83.6902 73.3599L94.7638 68.9835C95.0967 68.8519 95.1368 68.3968 94.832 68.209L84.6867 61.9594C84.4114 61.7898 84.0538 61.9695 84.0256 62.2917L83.0973 72.9178C83.0692 73.2397 83.3897 73.4787 83.6902 73.3599Z" fill="#1E3A2B"/>
<path d="M40.6207 68.9914V61.1818C40.6207 60.7064 39.9025 60.7069 39.9025 61.1818V68.9914C39.9025 69.4668 40.6207 69.4663 40.6207 68.9914Z" fill="#1E3A2B"/>
<path d="M93.8433 59.2846H104.623C105.099 59.2846 105.098 58.5664 104.623 58.5664H93.8433C93.3679 58.5664 93.3684 59.2846 93.8433 59.2846Z" fill="#1E3A2B"/>
<path d="M102.619 126.014C101.884 125.663 100.784 125.25 99.7312 125.704C97.8336 126.523 97.8407 128.541 99.5095 129.462C100.274 129.883 101.368 130.13 101.713 130.13C102.024 130.13 102.316 129.956 102.462 129.673C102.931 128.77 103.14 127.813 103.101 126.746C103.09 126.435 102.901 126.148 102.619 126.014ZM101.824 129.343C101.8 129.387 101.747 129.416 101.698 129.411C101.038 129.321 100.349 129.104 99.856 128.833C99.3468 128.552 98.8973 127.962 99.0235 127.376C99.1393 126.835 99.864 126.223 100.721 126.223C101.172 126.223 101.692 126.368 102.31 126.662C102.351 126.682 102.382 126.727 102.383 126.771C102.349 127.186 102.486 128.072 101.824 129.343Z" fill="#1E3A2B"/>
<path d="M18.8088 117.853L27.6577 101.942C27.8903 101.526 27.2585 101.179 27.0307 101.593L18.1817 117.504C17.9485 117.921 18.5797 118.267 18.8088 117.853Z" fill="#1E3A2B"/>
<path d="M138.892 115.57C139.166 115.57 139.34 115.273 139.205 115.034L131.462 101.335C131.228 100.92 130.602 101.275 130.836 101.689C139.018 116.01 138.489 115.57 138.892 115.57Z" fill="#1E3A2B"/>
<path d="M139.927 94.0785C141.42 83.4612 141.789 83.3971 141.298 83.188C141.149 83.1263 140.972 83.1711 140.872 83.3016C138.327 86.6498 136.208 90.3102 134.576 94.1823C134.39 94.6217 135.053 94.8971 135.238 94.4615C136.66 91.0887 138.457 87.8779 140.587 84.8986C137.991 102.099 138.328 95.6251 145.078 93.502C143.35 94.8781 141.817 96.475 140.506 98.2656C140.301 98.5454 140.576 98.9306 140.916 98.8161C142.828 98.1386 144.811 97.6947 146.825 97.492C145.975 98.26 145.237 99.1619 144.657 100.145C144.416 100.552 145.032 100.92 145.275 100.509C146.003 99.2755 146.999 98.1779 148.156 97.3356C148.442 97.1262 148.282 96.6644 147.924 96.6868C145.841 96.8012 143.784 97.1659 141.792 97.7718C143.243 95.9757 144.938 94.4026 146.844 93.0854C147.165 92.8642 146.941 92.3697 146.596 92.4339C144.038 92.7523 141.792 94.1515 139.793 95.4854C139.785 95.0211 139.857 94.5442 139.927 94.0785Z" fill="#1E3A2B"/>
<path d="M16.8099 36.9305C17.1734 37.2244 17.6313 36.6672 17.2574 36.3695C13.3835 33.2793 13.4735 27.1284 17.8935 24.2579C18.2064 28.3511 22.6802 29.6274 23.8655 28.2899C24.2232 27.8866 24.2232 27.341 24.1748 26.8592C23.8346 23.4239 21.8011 21.6684 18.6489 23.0389C19.1555 19.4147 22.8682 16.3242 26.9605 16.2022C25.7563 19.3695 27.0745 22.2971 28.8065 23.0866C30.3561 23.7912 32.288 22.7433 32.8126 21.1558C33.5672 18.8744 31.8981 15.9255 28.0729 15.5247C31.3181 9.88831 43.7046 9.67733 44.6395 16.4715C44.7007 16.935 45.4168 16.8481 45.3506 16.3733C44.3025 8.74523 30.6207 8.94862 27.2811 15.4805C22.0865 15.5245 18.1446 19.4607 17.89 23.4198C12.722 26.3764 12.4149 33.4274 16.8099 36.9305ZM27.7264 16.2155C32.5837 16.5411 33.4748 21.2051 30.7499 22.3958C29.5992 22.8989 28.6576 22.421 27.9761 21.39C27.0265 19.9558 26.9767 17.9633 27.7264 16.2155ZM23.4601 26.9307C23.5394 27.7152 23.3889 27.9669 22.73 28.0487C20.8129 28.2781 18.6181 26.5626 18.5948 23.8567C21.451 22.4286 23.1506 23.8019 23.4601 26.9307Z" fill="#1E3A2B"/>
<path d="M61.2944 136.967C60.6526 140.262 60.1231 143.634 59.7227 146.986C59.6657 147.457 60.3788 147.545 60.4352 147.072C61.5917 137.406 62.4545 136.829 61.7159 136.683C61.523 136.643 61.3323 136.772 61.2944 136.967Z" fill="#1E3A2B"/>
<path d="M64.55 135.298C64.1358 135.068 63.7869 135.7 64.205 135.928C65.91 136.86 67.4158 138.083 68.6796 139.562C68.9884 139.923 69.5346 139.457 69.2252 139.095C67.9046 137.55 66.3315 136.272 64.55 135.298Z" fill="#1E3A2B"/>
<path d="M75.1923 134.9C75.6557 134.9 75.6727 134.204 75.2099 134.182C72.185 134.034 69.1839 133.507 66.2901 132.615C65.8453 132.469 65.6183 133.159 66.0783 133.301C69.0296 134.21 72.0896 134.748 75.1748 134.899C75.1811 134.9 75.1867 134.9 75.1923 134.9Z" fill="#1E3A2B"/>
</svg>
