<svg width="86" height="44" viewBox="0 0 86 44" fill="none" xmlns="http://www.w3.org/2000/svg">
<path d="M2 39.0812C4.46937 36.8558 6.88774 36.0583 9.98444 35.4039C16.5321 34.0202 23.3182 33.7016 29.9455 34.2627C32.3939 34.47 37.6155 34.6346 39.5058 37.4328C40.7611 39.2909 39.0021 40.9368 37.7198 41.6173C36.1476 42.4516 33.2076 43.4765 31.4514 42.8642C29.1123 42.0486 35.9535 40.4857 38.3502 39.9688C53.0681 36.795 68.0855 36.0713 83 35.6575" stroke="url(#paint0_linear_996_52)" stroke-width="1.35754" stroke-linecap="round"/>
<path d="M9.24185 31H2.47385V5.8H17.3778V11.92H9.24185V15.448H16.5858V21.568H9.24185V31ZM31.8259 5.8L41.7979 31H34.7419L33.1219 26.716H24.1579L22.5739 31H15.6619L25.6339 5.8H31.8259ZM26.1379 21.028H31.1779L28.6579 14.152L26.1379 21.028ZM64.6264 31.864L61.8544 29.452C60.7984 30.1 59.6584 30.604 58.4344 30.964C57.2344 31.324 55.9624 31.504 54.6184 31.504C52.7704 31.504 51.0304 31.168 49.3984 30.496C47.7904 29.8 46.3744 28.864 45.1504 27.688C43.9504 26.512 43.0024 25.132 42.3064 23.548C41.6104 21.94 41.2624 20.224 41.2624 18.4C41.2624 16.576 41.6104 14.872 42.3064 13.288C43.0024 11.68 43.9504 10.288 45.1504 9.112C46.3744 7.936 47.7904 7.012 49.3984 6.34C51.0304 5.644 52.7704 5.296 54.6184 5.296C56.4664 5.296 58.1944 5.644 59.8024 6.34C61.4344 7.012 62.8504 7.936 64.0504 9.112C65.2744 10.288 66.2344 11.68 66.9304 13.288C67.6264 14.872 67.9744 16.576 67.9744 18.4C67.9744 19.768 67.7704 21.076 67.3624 22.324C66.9784 23.548 66.4264 24.688 65.7064 25.744L68.1544 27.904L64.6264 31.864ZM61.2424 18.4C61.2424 17.464 61.0624 16.588 60.7024 15.772C60.3664 14.956 59.8984 14.248 59.2984 13.648C58.7224 13.024 58.0264 12.544 57.2104 12.208C56.4184 11.848 55.5544 11.668 54.6184 11.668C53.6824 11.668 52.8064 11.848 51.9904 12.208C51.1984 12.544 50.5024 13.024 49.9024 13.648C49.3264 14.248 48.8584 14.956 48.4984 15.772C48.1624 16.588 47.9944 17.464 47.9944 18.4C47.9944 19.336 48.1624 20.212 48.4984 21.028C48.8584 21.844 49.3264 22.564 49.9024 23.188C50.5024 23.788 51.1984 24.268 51.9904 24.628C52.8064 24.964 53.6824 25.132 54.6184 25.132C55.2904 25.132 55.9504 25.036 56.5984 24.844L54.0784 22.576L57.6064 18.616L60.6304 21.28C61.0384 20.392 61.2424 19.432 61.2424 18.4ZM85.0992 25.24C85.0992 26.224 84.9072 27.1 84.5232 27.868C84.1392 28.636 83.5992 29.296 82.9032 29.848C82.2072 30.376 81.3552 30.784 80.3472 31.072C79.3632 31.36 78.2592 31.504 77.0352 31.504C75.4512 31.504 73.9272 31.288 72.4632 30.856C71.0232 30.424 69.7632 29.824 68.6832 29.056L71.2752 24.484C72.1632 25.036 73.1232 25.48 74.1552 25.816C75.2112 26.152 76.1832 26.32 77.0712 26.32C78.0792 26.32 78.5832 26.068 78.5832 25.564C78.5832 25.3 78.4392 25.108 78.1512 24.988C77.8632 24.868 77.3712 24.724 76.6752 24.556L75.7392 24.34C73.6032 23.86 72.0432 23.176 71.0592 22.288C70.0992 21.4 69.6192 20.188 69.6192 18.652C69.6192 17.716 69.7992 16.876 70.1592 16.132C70.5432 15.388 71.0712 14.752 71.7432 14.224C72.4152 13.672 73.2192 13.252 74.1552 12.964C75.1152 12.676 76.1832 12.532 77.3592 12.532C78.6792 12.532 79.9512 12.712 81.1752 13.072C82.3992 13.432 83.6472 13.96 84.9192 14.656L82.6512 19.264C81.7152 18.76 80.7912 18.364 79.8792 18.076C78.9672 17.788 78.1512 17.644 77.4312 17.644C76.9512 17.644 76.6032 17.704 76.3872 17.824C76.1952 17.92 76.0992 18.1 76.0992 18.364C76.0992 18.58 76.2432 18.748 76.5312 18.868C76.8432 18.988 77.3712 19.144 78.1152 19.336L79.0872 19.588C81.1992 20.14 82.7232 20.872 83.6592 21.784C84.6192 22.672 85.0992 23.824 85.0992 25.24Z" fill="white"/>
<defs>
<linearGradient id="paint0_linear_996_52" x1="42.5" y1="34" x2="42.5" y2="43.0503" gradientUnits="userSpaceOnUse">
<stop stop-color="#B2FF70"/>
<stop offset="1" stop-color="#8AC6FF"/>
</linearGradient>
</defs>
</svg>
