<svg width="1112" height="76" viewBox="0 0 1112 76" fill="none" xmlns="http://www.w3.org/2000/svg">
<path d="M469 65.2288C474.457 60.3109 479.801 58.5486 486.645 57.1025C501.114 54.0447 516.111 53.3405 530.756 54.5805C536.167 55.0386 547.706 55.4024 551.883 61.586C554.657 65.6921 550.77 69.3295 547.936 70.8332C544.462 72.677 537.965 74.942 534.084 73.5887C528.915 71.7864 544.033 68.3325 549.329 67.1904C581.854 60.1766 615.041 58.5774 648 57.6629" stroke="url(#paint0_linear_996_47)" stroke-width="3" stroke-linecap="round"/>
<path d="M492.235 58H479.451V10.4H507.603V21.96H492.235V28.624H506.107V40.184H492.235V58ZM534.893 10.4L553.729 58H540.401L537.341 49.908H520.409L517.417 58H504.361L523.197 10.4H534.893ZM524.149 39.164H533.669L528.909 26.176L524.149 39.164ZM596.85 59.632L591.614 55.076C589.619 56.3 587.466 57.252 585.154 57.932C582.887 58.612 580.485 58.952 577.946 58.952C574.455 58.952 571.169 58.3173 568.086 57.048C565.049 55.7333 562.374 53.9653 560.062 51.744C557.795 49.5227 556.005 46.916 554.69 43.924C553.375 40.8867 552.718 37.6453 552.718 34.2C552.718 30.7547 553.375 27.536 554.69 24.544C556.005 21.5067 557.795 18.8773 560.062 16.656C562.374 14.4347 565.049 12.6893 568.086 11.42C571.169 10.1053 574.455 9.448 577.946 9.448C581.437 9.448 584.701 10.1053 587.738 11.42C590.821 12.6893 593.495 14.4347 595.762 16.656C598.074 18.8773 599.887 21.5067 601.202 24.544C602.517 27.536 603.174 30.7547 603.174 34.2C603.174 36.784 602.789 39.2547 602.018 41.612C601.293 43.924 600.25 46.0773 598.89 48.072L603.514 52.152L596.85 59.632ZM590.458 34.2C590.458 32.432 590.118 30.7773 589.438 29.236C588.803 27.6947 587.919 26.3573 586.786 25.224C585.698 24.0453 584.383 23.1387 582.842 22.504C581.346 21.824 579.714 21.484 577.946 21.484C576.178 21.484 574.523 21.824 572.982 22.504C571.486 23.1387 570.171 24.0453 569.038 25.224C567.95 26.3573 567.066 27.6947 566.386 29.236C565.751 30.7773 565.434 32.432 565.434 34.2C565.434 35.968 565.751 37.6227 566.386 39.164C567.066 40.7053 567.95 42.0653 569.038 43.244C570.171 44.3773 571.486 45.284 572.982 45.964C574.523 46.5987 576.178 46.916 577.946 46.916C579.215 46.916 580.462 46.7347 581.686 46.372L576.926 42.088L583.59 34.608L589.302 39.64C590.073 37.9627 590.458 36.1493 590.458 34.2ZM635.521 47.12C635.521 48.9787 635.158 50.6333 634.433 52.084C633.707 53.5347 632.687 54.7813 631.373 55.824C630.058 56.8213 628.449 57.592 626.545 58.136C624.686 58.68 622.601 58.952 620.289 58.952C617.297 58.952 614.418 58.544 611.653 57.728C608.933 56.912 606.553 55.7787 604.513 54.328L609.409 45.692C611.086 46.7347 612.899 47.5733 614.849 48.208C616.843 48.8427 618.679 49.16 620.357 49.16C622.261 49.16 623.213 48.684 623.213 47.732C623.213 47.2333 622.941 46.8707 622.397 46.644C621.853 46.4173 620.923 46.1453 619.609 45.828L617.841 45.42C613.806 44.5133 610.859 43.2213 609.001 41.544C607.187 39.8667 606.281 37.5773 606.281 34.676C606.281 32.908 606.621 31.3213 607.301 29.916C608.026 28.5107 609.023 27.3093 610.293 26.312C611.562 25.2693 613.081 24.476 614.849 23.932C616.662 23.388 618.679 23.116 620.901 23.116C623.394 23.116 625.797 23.456 628.109 24.136C630.421 24.816 632.778 25.8133 635.181 27.128L630.897 35.832C629.129 34.88 627.383 34.132 625.661 33.588C623.938 33.044 622.397 32.772 621.037 32.772C620.13 32.772 619.473 32.8853 619.065 33.112C618.702 33.2933 618.521 33.6333 618.521 34.132C618.521 34.54 618.793 34.8573 619.337 35.084C619.926 35.3107 620.923 35.6053 622.329 35.968L624.165 36.444C628.154 37.4867 631.033 38.8693 632.801 40.592C634.614 42.2693 635.521 44.4453 635.521 47.12Z" fill="white"/>
<defs>
<linearGradient id="paint0_linear_996_47" x1="558.5" y1="54" x2="558.5" y2="74" gradientUnits="userSpaceOnUse">
<stop stop-color="#B2FF70"/>
<stop offset="1" stop-color="#8AC6FF"/>
</linearGradient>
</defs>
</svg>
