<svg width="140" height="65" viewBox="0 0 140 65" fill="none" xmlns="http://www.w3.org/2000/svg">
<path d="M44.3511 32.4998C44.3511 44.747 34.4228 54.6754 22.1756 54.6754C9.92834 54.6754 0 44.747 0 32.4998C0 20.2526 9.92834 10.3242 22.1756 10.3242C34.4228 10.3242 44.3511 20.2526 44.3511 32.4998Z" fill="#BFFF4F"/>
<path d="M20.7658 35.3394C19.594 35.0023 18.5915 34.6392 17.7583 34.2502C16.925 33.8613 16.248 33.4204 15.7272 32.9277C15.2064 32.435 14.8158 31.8904 14.5554 31.2939C14.3211 30.6975 14.2039 30.0232 14.2039 29.2712C14.2039 28.0523 14.4252 27.0021 14.8679 26.1204C15.3366 25.2127 15.9746 24.4607 16.7818 23.8642C17.589 23.2678 18.5394 22.8269 19.6331 22.5417C20.7528 22.2564 21.9766 22.1138 23.3046 22.1138C25.1013 22.1138 26.7809 22.3342 28.3432 22.775C29.9056 23.19 31.3117 23.7216 32.5616 24.3699L29.4759 30.3603C28.5646 29.7898 27.523 29.2971 26.3512 28.8822C25.2055 28.4413 24.1379 28.2209 23.1484 28.2209C22.6016 28.2209 22.3282 28.3635 22.3282 28.6488C22.3282 28.8303 22.4714 28.9729 22.7578 29.0767C23.0703 29.1804 23.6562 29.3619 24.5155 29.6213C25.5831 29.9584 26.5205 30.3085 27.3277 30.6715C28.1349 31.0087 28.8119 31.4106 29.3588 31.8774C29.9056 32.3183 30.3222 32.8499 30.6087 33.4723C30.8951 34.0946 31.0383 34.8467 31.0383 35.7284C31.0383 36.9732 30.7779 38.0494 30.2571 38.957C29.7363 39.8647 29.0333 40.6167 28.1479 41.2132C27.2626 41.7837 26.2471 42.1986 25.1013 42.4579C23.9817 42.7432 22.8099 42.8858 21.586 42.8858C19.7633 42.8858 17.9926 42.6654 16.274 42.2245C14.5554 41.7837 12.967 41.1483 11.5088 40.3185L14.907 34.4058C15.8183 34.9504 16.912 35.4691 18.1879 35.9618C19.4899 36.4545 20.7658 36.7009 22.0157 36.7009C22.3282 36.7009 22.5365 36.662 22.6406 36.5842C22.7708 36.5064 22.8359 36.4027 22.8359 36.273C22.8359 36.0915 22.6797 35.9488 22.3672 35.8451C22.0547 35.7154 21.5209 35.5469 20.7658 35.3394Z" fill="#1E3A2B"/>
<path d="M65.1179 37.7858C65.4849 37.7858 65.7939 37.7182 66.0449 37.583C66.3153 37.4478 66.4505 37.2354 66.4505 36.9457C66.4505 36.5595 66.1222 36.2215 65.4656 35.9319L63.0902 34.889C61.8349 34.329 60.8211 33.6145 60.0486 32.7454C59.2954 31.8571 58.9188 30.7466 58.9188 29.4141C58.9188 28.3713 59.1216 27.4154 59.5272 26.5463C59.952 25.658 60.5121 24.9048 61.2073 24.2868C61.9025 23.6495 62.7136 23.1571 63.6406 22.8095C64.5676 22.4619 65.5428 22.2881 66.5663 22.2881C68.2465 22.2881 69.7335 22.7129 71.0274 23.5626C72.3406 24.4124 73.3255 25.5421 73.9821 26.9519L68.7679 29.8486C68.5168 29.2886 68.1789 28.8251 67.754 28.4582C67.3485 28.072 66.885 27.8788 66.3636 27.8788C66.0159 27.8788 65.7166 27.9561 65.4656 28.1106C65.2338 28.2651 65.1179 28.4775 65.1179 28.7479C65.1179 29.1148 65.398 29.4238 65.958 29.6748L68.4782 30.8046C71.2784 32.0598 72.6785 33.8655 72.6785 36.2215C72.6785 37.3223 72.4564 38.3169 72.0123 39.2052C71.5681 40.0936 70.9694 40.8564 70.2163 41.4937C69.4631 42.1117 68.6037 42.5945 67.6381 42.9421C66.6725 43.2704 65.6683 43.4345 64.6255 43.4345C63.7178 43.4345 62.8488 43.309 62.0184 43.0579C61.188 42.8262 60.4155 42.4979 59.701 42.073C59.0057 41.6289 58.3878 41.0978 57.847 40.4798C57.3256 39.8425 56.9104 39.1376 56.6014 38.3652L61.9894 35.4394C62.2598 36.1153 62.6653 36.6754 63.2061 37.1195C63.7661 37.5637 64.4034 37.7858 65.1179 37.7858ZM79.1562 43.4055C78.2872 43.4055 77.4954 43.2124 76.7809 42.8262C76.0856 42.4206 75.4773 41.8896 74.9559 41.233C74.4538 40.5571 74.0675 39.7942 73.7972 38.9445C73.5268 38.0948 73.3916 37.2065 73.3916 36.2795C73.3916 35.2753 73.5558 34.2807 73.8841 33.2958C74.2317 32.2916 74.7145 31.4032 75.3325 30.6308C75.9698 29.839 76.7326 29.2017 77.6209 28.7189C78.5093 28.2361 79.5038 27.9947 80.6046 27.9947C81.4543 27.9947 82.2558 28.1395 83.0089 28.4292C83.7621 28.6996 84.3897 29.1727 84.8918 29.8486L85.0946 28.4003H91.1489L88.9763 43H82.922L83.1248 41.6675C82.7192 42.1117 82.1978 42.5172 81.5605 42.8841C80.9426 43.2317 80.1411 43.4055 79.1562 43.4055ZM81.6474 37.9596C81.9757 37.9596 82.2847 37.9017 82.5744 37.7858C82.8834 37.6506 83.1538 37.4768 83.3855 37.2644C83.6172 37.0326 83.8007 36.7816 83.9359 36.5112C84.0904 36.2215 84.1676 35.9222 84.1676 35.6132C84.1676 34.9759 83.9552 34.4545 83.5303 34.049C83.1055 33.6434 82.5937 33.4406 81.995 33.4406C81.6474 33.4406 81.3191 33.5082 81.0101 33.6434C80.7205 33.7786 80.4598 33.9621 80.228 34.1938C80.0156 34.4062 79.8418 34.6573 79.7066 34.947C79.5714 35.2366 79.5038 35.5456 79.5038 35.8739C79.5038 36.4919 79.7066 36.994 80.1121 37.3803C80.5177 37.7665 81.0295 37.9596 81.6474 37.9596ZM104.112 43L102.925 36.0767L99.7382 43H94.4371L91.7721 28.4003H97.7974L98.6375 35.0339L101.708 28.4003H106.256L107.299 35.0339L110.167 28.4003H116.395L109.385 43H104.112ZM133.156 35.0918C133.252 34.5511 133.194 34.1648 132.982 33.9331C132.769 33.682 132.489 33.5565 132.142 33.5565C131.736 33.5565 131.418 33.7014 131.186 33.991C130.954 34.2614 130.8 34.638 130.722 35.1208L129.535 43H123.423L124.61 35.0918C124.707 34.5511 124.649 34.1648 124.436 33.9331C124.224 33.682 123.944 33.5565 123.596 33.5565C123.191 33.5565 122.863 33.7014 122.611 33.991C122.38 34.2614 122.225 34.638 122.148 35.1208L120.96 43H114.848L117.021 28.4003H123.162L122.93 29.9935C123.374 29.3755 123.934 28.8831 124.61 28.5161C125.305 28.1492 126.088 27.9657 126.957 27.9657C127.845 27.9657 128.579 28.1685 129.158 28.5741C129.757 28.9603 130.191 29.501 130.462 30.1963C131.08 29.3658 131.765 28.7865 132.518 28.4582C133.291 28.1299 134.16 27.9657 135.126 27.9657C135.975 27.9657 136.699 28.1106 137.298 28.4003C137.916 28.6899 138.399 29.0955 138.746 29.6169C139.113 30.119 139.345 30.7273 139.442 31.4419C139.558 32.1371 139.558 32.9096 139.442 33.7593L138.08 43H131.968L133.156 35.0918Z" fill="#1E3A2B"/>
</svg>
