<svg width="83" height="84" viewBox="0 0 83 84" fill="none" xmlns="http://www.w3.org/2000/svg">
<path d="M82.9998 42C82.9998 64.9198 64.4196 83.5 41.4998 83.5C18.58 83.5 -0.000183105 64.9198 -0.000183105 42C-0.000183105 19.0802 18.58 0.5 41.4998 0.5C64.4196 0.5 82.9998 19.0802 82.9998 42Z" fill="#BFFF4F"/>
<path d="M38.8615 47.3142C36.6687 46.6833 34.7925 46.0038 33.2332 45.2759C31.6738 44.5479 30.4068 43.7229 29.4322 42.8008C28.4575 41.8787 27.7266 40.8595 27.2393 39.7433C26.8007 38.6271 26.5814 37.3653 26.5814 35.9579C26.5814 33.6769 26.9956 31.7114 27.824 30.0614C28.7012 28.3628 29.8951 26.9554 31.4058 25.8391C32.9164 24.7229 34.6951 23.8979 36.7418 23.3641C38.8372 22.8302 41.1275 22.5633 43.6128 22.5633C46.9752 22.5633 50.1183 22.9758 53.0422 23.8008C55.966 24.5773 58.5975 25.5722 60.9365 26.7855L55.1619 37.9962C53.4564 36.9285 51.5071 36.0064 49.3143 35.2299C47.1701 34.4049 45.1722 33.9924 43.3204 33.9924C42.2971 33.9924 41.7854 34.2593 41.7854 34.7931C41.7854 35.1329 42.0534 35.3998 42.5894 35.5939C43.1742 35.788 44.2706 36.1277 45.8788 36.6131C47.8767 37.244 49.631 37.8991 51.1417 38.5786C52.6523 39.2095 53.9193 39.9617 54.9427 40.8353C55.966 41.6603 56.7457 42.6552 57.2817 43.8199C57.8178 44.9847 58.0858 46.3921 58.0858 48.0421C58.0858 50.3716 57.5985 52.3857 56.6239 54.0842C55.6493 55.7828 54.3335 57.1902 52.6767 58.3065C51.0198 59.3741 49.1193 60.1506 46.9752 60.6359C44.8798 61.1698 42.6869 61.4367 40.3966 61.4367C36.9854 61.4367 33.6717 61.0242 30.4555 60.1992C27.2393 59.3741 24.2667 58.1851 21.5378 56.6321L27.8971 45.567C29.6027 46.5862 31.6494 47.5568 34.0372 48.4789C36.4737 49.401 38.8615 49.862 41.2006 49.862C41.7854 49.862 42.1752 49.7892 42.3701 49.6437C42.6138 49.4981 42.7356 49.3039 42.7356 49.0613C42.7356 48.7216 42.4432 48.4546 41.8585 48.2605C41.2737 48.0179 40.2747 47.7024 38.8615 47.3142Z" fill="#1E3A2B"/>
</svg>
