<svg width="171" height="28" viewBox="0 0 171 28" fill="none" xmlns="http://www.w3.org/2000/svg">
<path d="M14.5 22.5032L23.461 28L21.083 17.64L29 10.6695L18.5745 9.77053L14.5 0L10.4255 9.77053L0 10.6695L7.917 17.64L5.539 28L14.5 22.5032Z" fill="#BFFF4F"/>
<path d="M50 22.5032L59.27 28L56.81 17.64L65 10.6695L54.215 9.77053L50 0L45.785 9.77053L35 10.6695L43.19 17.64L40.73 28L50 22.5032Z" fill="#BFFF4F"/>
<path d="M85.5 22.5032L94.461 28L92.083 17.64L100 10.6695L89.5745 9.77053L85.5 0L81.4255 9.77053L71 10.6695L78.917 17.64L76.539 28L85.5 22.5032Z" fill="#BFFF4F"/>
<path d="M121 22.5032L130.27 28L127.81 17.64L136 10.6695L125.215 9.77053L121 0L116.785 9.77053L106 10.6695L114.19 17.64L111.73 28L121 22.5032Z" fill="#BFFF4F"/>
<path d="M156 22.5032L165.27 28L162.81 17.64L171 10.6695L160.215 9.77053L156 0L151.785 9.77053L141 10.6695L149.19 17.64L146.73 28L156 22.5032Z" fill="#BFFF4F"/>
</svg>
